# xmcd
#
# Track frame offsets:
#	150
#	19902
#	41222
#	59382
#	81492
#	101655
#	122972
#	143570
#	163309
#	185247
#
# Disc length: 2710 seconds
#
# Revision: 6
# Processed by: cddbd v1.5.2PL0 Copyright (c) Steve Scherf et al.
# Submitted via: EasyCDDAExtractor 15.3.0.1
#
DISCID=970a940a
DTITLE=Gisselle - A Que Vuelve
DYEAR=1996
DGENRE=Latin
TTITLE0=A Que Vuelve
TTITLE1=Porque Te Extraño
TTITLE2=Cabecita Loca
TTITLE3=Siempre Que Pasa El Amor
TTITLE4=El Negro
TTITLE5=Me Pasa Lo Mismo
TTITLE6=Circulo Vicioso
TTITLE7=Ya Me Canse
TTITLE8=Vampira
TTITLE9=Piel Morena
EXTD=A Que Vuelve
EXTT0=
EXTT1=
EXTT2=
EXTT3=
EXTT4=
EXTT5=
EXTT6=
EXTT7=
EXTT8=
EXTT9=
PLAYORDER=
